M48
; DRILL file KiCad 10.0.1 date 2026-04-22T19:24:49
; FORMAT={-:-/ absolute / metric / decimal}
; #@! TF.CreationDate,2026-04-22T19:24:49-04:00
; #@! TF.GenerationSoftware,Kicad,Pcbnew,10.0.1
; #@! TF.FileFunction,NonPlated,1,2,NPTH
FMAT,2
METRIC
; #@! TA.AperFunction,NonPlated,NPTH,ComponentDrill
T1C0.650
; #@! TA.AperFunction,NonPlated,NPTH,ComponentDrill
T2C1.750
; #@! TA.AperFunction,NonPlated,NPTH,ComponentDrill
T3C3.048
; #@! TA.AperFunction,NonPlated,NPTH,ComponentDrill
T4C3.988
; #@! TA.AperFunction,NonPlated,NPTH,ComponentDrill
T5C4.000
%
G90
G05
T1
X81.402Y-107.902
X87.182Y-107.902
T2
X69.692Y-112.442
X72.392Y-188.602
X74.772Y-131.482
X76.832Y-150.522
X79.852Y-112.442
X81.592Y-169.562
X82.552Y-188.602
X84.932Y-131.482
X86.992Y-150.522
X88.732Y-112.442
X91.752Y-169.562
X95.872Y-188.602
X98.252Y-131.482
X98.892Y-112.442
X103.012Y-150.522
X106.032Y-188.602
X107.772Y-112.442
X108.412Y-131.482
X112.532Y-169.562
X113.172Y-150.522
X117.292Y-131.482
X117.932Y-112.442
X119.672Y-188.602
X122.052Y-150.522
X122.692Y-169.562
X126.812Y-112.442
X127.452Y-131.482
X129.832Y-188.602
X131.572Y-169.562
X132.212Y-150.522
X136.332Y-131.482
X136.972Y-112.442
X141.092Y-150.522
X141.732Y-169.562
X145.852Y-112.442
X146.492Y-131.482
X150.612Y-169.562
X151.252Y-150.522
X155.372Y-131.482
X156.012Y-112.442
X160.132Y-150.522
X160.772Y-169.562
X164.892Y-112.442
X165.532Y-131.482
X169.652Y-169.562
X170.292Y-150.522
X174.412Y-131.482
X175.052Y-112.442
X179.172Y-150.522
X179.812Y-169.562
X183.932Y-112.442
X184.572Y-131.482
X188.692Y-169.402
X189.332Y-150.522
X192.154Y-188.442
X193.452Y-131.482
X194.092Y-112.442
X198.212Y-150.522
X198.852Y-169.402
X202.314Y-188.442
X202.972Y-112.442
X203.612Y-131.482
X207.732Y-169.562
X208.372Y-150.522
X212.492Y-131.482
X213.132Y-112.442
X217.252Y-150.522
X217.892Y-169.562
X222.012Y-112.442
X222.652Y-131.482
X226.772Y-169.562
X227.412Y-150.522
X231.532Y-131.482
X232.172Y-112.442
X236.292Y-150.522
X236.932Y-169.562
X241.052Y-112.442
X241.692Y-131.482
X245.812Y-169.562
X246.452Y-150.522
X250.572Y-131.482
X251.212Y-112.442
X255.332Y-150.522
X255.972Y-169.562
X260.092Y-112.442
X260.732Y-131.482
X262.472Y-188.602
X264.852Y-169.562
X265.492Y-150.522
X269.612Y-131.482
X270.252Y-112.442
X272.632Y-188.602
X274.372Y-150.522
X275.012Y-169.562
X279.132Y-112.442
X279.772Y-131.482
X283.892Y-169.562
X284.532Y-150.522
X286.272Y-188.602
X288.652Y-131.482
X289.292Y-112.442
X293.412Y-150.522
X294.052Y-169.562
X296.432Y-188.602
X298.172Y-112.442
X298.812Y-131.482
X303.572Y-150.522
X307.692Y-131.482
X308.332Y-112.442
X310.072Y-188.602
X317.852Y-131.482
X319.912Y-169.562
X320.232Y-188.602
X324.352Y-150.522
X326.732Y-112.442
X330.072Y-169.562
X331.492Y-131.482
X333.872Y-188.602
X334.512Y-150.522
X336.892Y-112.442
X341.652Y-131.482
X344.032Y-188.602
T3
X74.734Y-162.577
X98.61Y-162.577
X147.234Y-195.427
X247.234Y-195.427
X313.054Y-162.577
X317.494Y-143.537
X319.874Y-105.457
X336.93Y-162.577
X341.37Y-143.537
X343.75Y-105.457
T4
X74.734Y-177.787
X98.61Y-177.787
X147.234Y-180.217
X247.234Y-180.217
X313.054Y-177.787
X317.494Y-158.747
X319.874Y-120.667
X336.93Y-177.787
X341.37Y-158.747
X343.75Y-120.667
T5
X74.772Y-112.442
X77.472Y-188.602
X79.852Y-131.482
X81.912Y-150.522
X86.672Y-169.562
X93.812Y-112.442
X100.952Y-188.602
X103.332Y-131.482
X108.092Y-150.522
X112.852Y-112.442
X117.612Y-169.562
X122.372Y-131.482
X124.752Y-188.602
X127.132Y-150.522
X131.892Y-112.442
X136.652Y-169.562
X141.412Y-131.482
X146.172Y-150.522
X150.932Y-112.442
X155.692Y-169.562
X160.452Y-131.482
X165.212Y-150.522
X169.972Y-112.442
X174.732Y-169.562
X179.492Y-131.482
X184.252Y-150.522
X189.012Y-112.442
X193.772Y-169.402
X197.234Y-188.442
X198.532Y-131.482
X203.292Y-150.522
X208.052Y-112.442
X212.812Y-169.562
X217.572Y-131.482
X222.332Y-150.522
X227.092Y-112.442
X231.852Y-169.562
X236.612Y-131.482
X241.372Y-150.522
X246.132Y-112.442
X250.892Y-169.562
X255.652Y-131.482
X260.412Y-150.522
X265.172Y-112.442
X267.552Y-188.602
X269.932Y-169.562
X274.692Y-131.482
X279.452Y-150.522
X284.212Y-112.442
X288.972Y-169.562
X291.352Y-188.602
X293.732Y-131.482
X298.492Y-150.522
X303.252Y-112.442
X312.772Y-131.482
X315.152Y-188.602
X324.992Y-169.562
X329.432Y-150.522
X331.812Y-112.442
X336.572Y-131.482
X338.952Y-188.602
M30
