M48
; DRILL file KiCad 10.0.1 date 2026-04-22T19:24:49
; FORMAT={-:-/ absolute / metric / decimal}
; #@! TF.CreationDate,2026-04-22T19:24:49-04:00
; #@! TF.GenerationSoftware,Kicad,Pcbnew,10.0.1
; #@! TF.FileFunction,Plated,1,2,PTH
FMAT,2
METRIC
; #@! TA.AperFunction,Plated,PTH,ViaDrill
T1C0.300
; #@! TA.AperFunction,Plated,PTH,ComponentDrill
T2C0.600
; #@! TA.AperFunction,Plated,PTH,ComponentDrill
T3C2.499
; #@! TA.AperFunction,Plated,PTH,ComponentDrill
T4C2.499
; #@! TA.AperFunction,Plated,PTH,ComponentDrill
T5C3.050
%
G90
G05
T1
X71.628Y-108.712
X75.692Y-117.856
X80.264Y-136.144
X84.836Y-106.68
X87.884Y-114.3
X88.392Y-123.444
X89.408Y-114.3
X90.932Y-113.792
X92.456Y-123.952
X92.964Y-140.208
X92.964Y-142.24
X93.98Y-155.448
X94.996Y-143.256
X97.536Y-158.496
X97.536Y-184.404
X106.68Y-186.436
X108.712Y-154.94
X109.22Y-139.192
X111.76Y-131.572
X113.792Y-191.008
X115.824Y-159.004
X126.492Y-144.78
X132.588Y-188.976
X133.096Y-177.8
X133.096Y-187.96
X133.604Y-185.42
X136.144Y-178.308
X138.684Y-180.848
X140.716Y-140.716
X141.224Y-185.42
X143.256Y-177.8
X146.812Y-171.704
X146.812Y-176.784
X147.32Y-161.036
X149.86Y-164.084
X152.4Y-181.356
X153.924Y-164.084
X155.448Y-164.084
X156.464Y-173.736
X157.48Y-185.928
X160.528Y-184.912
X161.544Y-165.1
X162.052Y-180.34
X164.084Y-183.388
X165.608Y-191.008
X172.212Y-195.58
X172.72Y-183.896
X172.72Y-185.928
X174.244Y-188.468
X174.244Y-193.04
X176.276Y-182.372
X178.308Y-181.356
X178.816Y-187.452
X179.324Y-191.008
X180.34Y-189.992
X183.492Y-190.095
X184.404Y-159.512
X188.976Y-181.356
X190.5Y-166.624
X197.612Y-179.832
X198.12Y-161.036
X198.12Y-183.896
X198.12Y-192.024
X198.12Y-194.564
X199.644Y-164.592
X199.644Y-179.832
X199.644Y-185.42
X207.772Y-179.832
X208.788Y-166.116
X210.82Y-179.832
X213.36Y-182.88
X213.36Y-192.024
X213.389Y-179.803
X213.868Y-187.96
X214.884Y-192.024
X215.392Y-179.832
X215.9Y-194.056
X216.916Y-177.292
X217.424Y-165.608
X217.932Y-145.288
X218.44Y-182.88
X220.472Y-189.484
X220.472Y-192.532
X220.98Y-177.8
X221.234Y-175.006
X221.488Y-187.96
X223.012Y-174.244
X223.012Y-185.42
X224.028Y-187.96
X224.028Y-190.5
X224.536Y-179.324
X225.552Y-185.42
X226.06Y-171.704
X227.584Y-180.516
X228.569Y-182.911
X229.108Y-178.816
X230.124Y-184.404
X230.124Y-191.008
X230.632Y-166.624
X231.14Y-186.436
X231.14Y-192.532
X231.648Y-180.34
X232.156Y-193.04
X232.606Y-189.034
X232.664Y-196.088
X233.172Y-188.468
X233.68Y-184.912
X233.68Y-187.452
X233.68Y-191.516
X234.696Y-184.404
X235.204Y-175.768
X235.204Y-180.34
X235.204Y-189.992
X235.712Y-163.576
X235.712Y-187.452
X235.712Y-192.532
X236.22Y-180.848
X237.236Y-177.8
X237.236Y-179.832
X237.236Y-189.484
X237.594Y-185.172
X238.252Y-180.34
X240.284Y-181.356
X240.792Y-179.324
X240.792Y-182.372
X240.792Y-194.564
X241.808Y-181.356
X241.808Y-184.912
X241.808Y-186.944
X242.316Y-188.468
X242.824Y-181.356
X242.824Y-184.404
X242.824Y-195.072
X243.332Y-186.944
X243.332Y-190.5
X243.332Y-193.04
X243.84Y-185.42
X243.84Y-189.484
X244.827Y-190.471
X247.396Y-167.132
X248.412Y-185.928
X249.428Y-187.452
X249.936Y-191.008
X251.46Y-180.34
X251.46Y-189.992
X251.968Y-184.912
X251.968Y-192.024
X252.984Y-180.34
X254.508Y-194.056
X255.524Y-166.624
X261.62Y-196.596
X262.636Y-179.324
X264.16Y-185.42
X264.668Y-190.5
X272.796Y-185.928
X280.416Y-191.008
X295.656Y-185.928
X299.72Y-178.308
X300.228Y-179.324
X301.752Y-180.34
X305.308Y-163.068
X325.12Y-166.116
X341.884Y-168.656
X348.996Y-120.396
T4
X91.091Y-131.377
T5
X72.232Y-117.522
X74.932Y-193.682
X77.312Y-136.562
X78.582Y-114.982
X79.372Y-155.602
X81.282Y-191.142
X83.662Y-134.022
X84.132Y-174.642
X85.722Y-153.062
X90.482Y-172.102
X91.272Y-117.522
X97.622Y-114.982
X98.412Y-193.682
X100.792Y-136.562
X104.762Y-191.142
X105.552Y-155.602
X107.142Y-134.022
X110.312Y-117.522
X111.902Y-153.062
X115.072Y-174.642
X116.662Y-114.982
X119.832Y-136.562
X121.422Y-172.102
X122.212Y-193.682
X124.592Y-155.602
X126.182Y-134.022
X128.562Y-191.142
X129.352Y-117.522
X130.942Y-153.062
X134.112Y-174.642
X135.702Y-114.982
X138.872Y-136.562
X140.462Y-172.102
X143.632Y-155.602
X145.222Y-134.022
X148.392Y-117.522
X149.982Y-153.062
X153.152Y-174.642
X154.742Y-114.982
X157.912Y-136.562
X159.502Y-172.102
X162.672Y-155.602
X164.262Y-134.022
X167.432Y-117.522
X169.022Y-153.062
X172.192Y-174.642
X173.782Y-114.982
X176.952Y-136.562
X178.542Y-172.102
X181.712Y-155.602
X183.302Y-134.022
X186.472Y-117.522
X188.062Y-153.062
X191.232Y-174.482
X192.822Y-114.982
X194.694Y-193.522
X195.992Y-136.562
X197.582Y-171.942
X200.752Y-155.602
X201.044Y-190.982
X202.342Y-134.022
X205.512Y-117.522
X207.102Y-153.062
X210.272Y-174.642
X211.862Y-114.982
X215.032Y-136.562
X216.622Y-172.102
X219.792Y-155.602
X221.382Y-134.022
X224.552Y-117.522
X226.142Y-153.062
X229.312Y-174.642
X230.902Y-114.982
X234.072Y-136.562
X235.662Y-172.102
X238.832Y-155.602
X240.422Y-134.022
X243.592Y-117.522
X245.182Y-153.062
X248.352Y-174.642
X249.942Y-114.982
X253.112Y-136.562
X254.702Y-172.102
X257.872Y-155.602
X259.462Y-134.022
X262.632Y-117.522
X264.222Y-153.062
X265.012Y-193.682
X267.392Y-174.642
X268.982Y-114.982
X271.362Y-191.142
X272.152Y-136.562
X273.742Y-172.102
X276.912Y-155.602
X278.502Y-134.022
X281.672Y-117.522
X283.262Y-153.062
X286.432Y-174.642
X288.022Y-114.982
X288.812Y-193.682
X291.192Y-136.562
X292.782Y-172.102
X295.162Y-191.142
X295.952Y-155.602
X297.542Y-134.022
X300.712Y-117.522
X302.302Y-153.062
X307.062Y-114.982
X310.232Y-136.562
X312.612Y-193.682
X316.582Y-134.022
X318.962Y-191.142
X322.452Y-174.642
X326.892Y-155.602
X328.802Y-172.102
X329.272Y-117.522
X333.242Y-153.062
X334.032Y-136.562
X335.622Y-114.982
X336.412Y-193.682
X340.382Y-134.022
X342.762Y-191.142
T2
G00X79.972Y-103.952
M15
G01X79.972Y-104.552
M16
G05
G00X79.972Y-107.882
M15
G01X79.972Y-108.982
M16
G05
G00X88.612Y-103.952
M15
G01X88.612Y-104.552
M16
G05
G00X88.612Y-107.882
M15
G01X88.612Y-108.982
M16
G05
T3
G00X65.1Y-159.977
M15
G01X69.601Y-159.977
M16
G05
G00X192.84Y-150.476
M15
G01X195.342Y-150.476
M16
G05
G00X255.14Y-188.677
M15
G01X257.642Y-188.677
M16
G05
G00X324.69Y-131.377
M15
G01X327.192Y-131.377
M16
G05
G00X347.182Y-159.977
M15
G01X351.683Y-159.977
M16
G05
M30
